<svg width="22" height="22" viewBox="0 0 22 22" fill="none" xmlns="http://www.w3.org/2000/svg">
<path fill-rule="evenodd" clip-rule="evenodd" d="M10.6252 3.35628C12.3461 3.27147 14.0453 3.77044 15.4472 4.77229C16.6644 5.64214 17.5954 6.84681 18.132 8.23284L15.7299 7.18711C15.4037 7.04509 15.0242 7.19441 14.8821 7.52062C14.7401 7.84683 14.8894 8.22641 15.2156 8.36843L19.0272 10.0278C19.1965 10.1015 19.3892 10.099 19.5565 10.0211C19.7238 9.94311 19.8496 9.79711 19.902 9.62013L21.0739 5.66414C21.1749 5.323 20.9803 4.96454 20.6391 4.86349C20.298 4.76245 19.9395 4.95707 19.8385 5.29821L19.202 7.44681C18.5601 5.96226 17.5238 4.67273 16.1963 3.72404C14.5582 2.55338 12.5727 1.97033 10.5618 2.06943C8.5508 2.16853 6.63225 2.94397 5.1172 4.27002C3.60214 5.59607 2.5794 7.39499 2.2148 9.37511C2.15037 9.72501 2.38179 10.0609 2.7317 10.1253C3.0816 10.1898 3.41748 9.95833 3.48191 9.60843C3.79394 7.91386 4.66919 6.37436 5.96576 5.23953C7.26234 4.10471 8.90421 3.44109 10.6252 3.35628ZM19.2684 11.8709C19.6183 11.9353 19.8497 12.2712 19.7853 12.6211C19.4207 14.6012 18.3979 16.4001 16.8829 17.7262C15.3678 19.0523 13.4493 19.8277 11.4383 19.9268C9.42734 20.0259 7.44185 19.4428 5.80376 18.2722C4.46492 17.3154 3.4223 16.0119 2.78165 14.5113L2.39728 16.9381C2.34162 17.2895 2.01163 17.5293 1.66023 17.4736C1.30882 17.418 1.06907 17.088 1.12472 16.7366L1.77016 12.6615C1.79903 12.4792 1.90473 12.318 2.06043 12.2189C2.21613 12.1197 2.40687 12.0921 2.58429 12.1431L6.57984 13.2908C6.92179 13.389 7.11938 13.7458 7.02116 14.0878C6.92293 14.4298 6.56609 14.6273 6.22413 14.5291L3.9078 13.8638C4.44991 15.2076 5.3652 16.3751 6.55289 17.2239C7.95476 18.2258 9.65392 18.7247 11.3749 18.6399C13.0959 18.5551 14.7377 17.8915 16.0343 16.7567C17.3309 15.6219 18.2061 14.0824 18.5182 12.3878C18.5826 12.0379 18.9185 11.8065 19.2684 11.8709Z" fill="url(#paint0_linear_267_819)"/>
<defs>
<linearGradient id="paint0_linear_267_819" x1="11.1121" y1="1.67451" x2="11.1121" y2="20.3235" gradientUnits="userSpaceOnUse">
<stop stop-color="#8096CB"/>
<stop offset="1" stop-color="#8096CB" stop-opacity="0.5"/>
</linearGradient>
</defs>
</svg>
