<svg width="22" height="22" viewBox="0 0 22 22" fill="none" xmlns="http://www.w3.org/2000/svg">
<path fill-rule="evenodd" clip-rule="evenodd" d="M14.0945 1.59634C14.0945 1.17206 14.4384 0.828125 14.8627 0.828125H17.9355C18.3598 0.828125 18.7037 1.17206 18.7037 1.59634V4.66918C18.7037 5.09345 18.3598 5.43739 17.9355 5.43739C17.5112 5.43739 17.1673 5.09345 17.1673 4.66918V3.30663L12.2706 7.6578C11.9772 7.9185 11.5345 7.91613 11.2439 7.65231L9.08923 5.69602L3.84264 10.2431C3.52202 10.5209 3.03685 10.4863 2.75898 10.1657C2.48112 9.84505 2.51577 9.35988 2.83639 9.08201L8.59796 4.08865C8.89181 3.83398 9.3296 3.83904 9.61748 4.10042L11.7658 6.05096L15.9144 2.36455H14.8627C14.4384 2.36455 14.0945 2.02061 14.0945 1.59634ZM4.10767 15.424C4.53194 15.424 4.87588 15.7679 4.87588 16.1922L4.87588 20.8015C4.87588 21.2257 4.53194 21.5697 4.10767 21.5697C3.6834 21.5697 3.33946 21.2257 3.33946 20.8015L3.33946 16.1922C3.33946 15.7679 3.6834 15.424 4.10767 15.424ZM9.4852 13.1193C9.4852 12.6951 9.14126 12.3511 8.71699 12.3511C8.29272 12.3511 7.94878 12.6951 7.94878 13.1193L7.94878 20.8014C7.94878 21.2257 8.29272 21.5696 8.71699 21.5696C9.14126 21.5696 9.4852 21.2257 9.4852 20.8014V13.1193ZM13.3263 10.0458C13.7505 10.0458 14.0945 10.3897 14.0945 10.814V20.8007C14.0945 21.225 13.7506 21.569 13.3263 21.569C12.902 21.569 12.5581 21.225 12.5581 20.8007L12.5581 10.814C12.5581 10.3897 12.902 10.0458 13.3263 10.0458ZM18.7036 8.50959C18.7036 8.08532 18.3597 7.74138 17.9354 7.74138C17.5111 7.74138 17.1672 8.08532 17.1672 8.50959L17.1672 20.801C17.1672 21.2252 17.5111 21.5692 17.9354 21.5692C18.3597 21.5692 18.7036 21.2252 18.7036 20.801V8.50959Z" fill="url(#paint0_linear_267_805)"/>
<defs>
<linearGradient id="paint0_linear_267_805" x1="10.6403" y1="0.382546" x2="10.6403" y2="22.0173" gradientUnits="userSpaceOnUse">
<stop stop-color="#8096CB"/>
<stop offset="1" stop-color="#8096CB" stop-opacity="0.5"/>
</linearGradient>
</defs>
</svg>
