<svg width="22" height="22" viewBox="0 0 22 22" fill="none" xmlns="http://www.w3.org/2000/svg">
<path fill-rule="evenodd" clip-rule="evenodd" d="M2.06247 2.02734C1.66284 2.02734 1.33887 2.35131 1.33887 2.75095V8.93845C1.33887 9.33809 1.66284 9.66206 2.06247 9.66206H19.9375C20.3371 9.66206 20.6611 9.33809 20.6611 8.93845V2.75095C20.6611 2.35131 20.3371 2.02734 19.9375 2.02734H2.06247ZM2.78608 8.21484V3.47456H19.2139V8.21484H2.78608ZM2.06255 12.3386C1.66291 12.3386 1.33894 12.6626 1.33894 13.0623V19.2498C1.33894 19.6494 1.66291 19.9734 2.06255 19.9734H19.9375C20.3372 19.9734 20.6612 19.6494 20.6612 19.2498V13.0623C20.6612 12.6626 20.3372 12.3386 19.9375 12.3386H2.06255ZM2.78616 18.5261V13.7859H19.2139V18.5261H2.78616ZM4.77644 5.84351C4.77644 5.44387 5.10041 5.1199 5.50005 5.1199H8.25005C8.64969 5.1199 8.97366 5.44387 8.97366 5.84351C8.97366 6.24314 8.64969 6.56711 8.25005 6.56711H5.50005C5.10041 6.56711 4.77644 6.24314 4.77644 5.84351ZM5.50005 15.4348C5.10041 15.4348 4.77644 15.7588 4.77644 16.1584C4.77644 16.558 5.10041 16.882 5.50005 16.882H8.25005C8.64969 16.882 8.97366 16.558 8.97366 16.1584C8.97366 15.7588 8.64969 15.4348 8.25005 15.4348H5.50005ZM16.5 6.53339C16.8797 6.53339 17.1875 6.22559 17.1875 5.84589C17.1875 5.4662 16.8797 5.15839 16.5 5.15839C16.1204 5.15839 15.8125 5.4662 15.8125 5.84589C15.8125 6.22559 16.1204 6.53339 16.5 6.53339ZM17.1875 16.156C17.1875 16.5357 16.8797 16.8435 16.5 16.8435C16.1204 16.8435 15.8125 16.5357 15.8125 16.156C15.8125 15.7763 16.1204 15.4685 16.5 15.4685C16.8797 15.4685 17.1875 15.7763 17.1875 16.156Z" fill="url(#paint0_linear_267_772)"/>
<defs>
<linearGradient id="paint0_linear_267_772" x1="11.0034" y1="1.64182" x2="11.0034" y2="20.3607" gradientUnits="userSpaceOnUse">
<stop stop-color="#8096CC"/>
<stop offset="1" stop-color="#8096CB" stop-opacity="0.5"/>
</linearGradient>
</defs>
</svg>
