<svg width="163" height="63" viewBox="0 0 163 63" fill="none" xmlns="http://www.w3.org/2000/svg">
<path d="M28.9049 9.77902C28.9049 11.9124 27.197 13.6518 25.1025 13.6518C23.0079 13.6518 21.3001 11.9124 21.3001 9.77902C21.3001 7.64568 23.0079 5.9062 25.1025 5.9062C27.197 5.9062 28.9049 7.64568 28.9049 9.77902ZM8.92615 21.9554C9.31284 21.7585 9.63507 21.5288 9.92509 21.2006C10.6018 20.5113 10.9885 19.5924 11.0529 18.6406C11.0851 18.1811 10.9885 17.7872 10.9562 17.3277C10.924 16.8682 10.9885 16.3759 11.1174 15.9165C11.6652 14.0129 13.5664 12.8313 15.4676 13.1595C17.2721 13.4549 19.1089 12.4375 19.7533 10.698C20.3656 9.08979 19.85 7.1862 18.4966 6.13594C17.1754 5.08568 15.2742 5.08568 13.8886 6.0703C13.1475 6.62825 12.5997 7.44876 12.3741 8.36773C12.2774 8.82722 12.2452 9.28671 12.3096 9.7462C12.3741 10.1729 12.4063 10.5995 12.3741 11.059C12.1485 13.0282 10.4729 14.538 8.53946 14.5708C8.12056 14.5708 7.70165 14.4724 7.25051 14.4395C6.79938 14.4395 6.34825 14.5052 5.89712 14.6693C5.02707 14.9647 4.28593 15.6211 3.83479 16.4088C2.99698 17.8857 3.22254 19.8221 4.3826 21.0693C5.54265 22.3821 7.41163 22.7103 8.92615 21.9554ZM14.6942 15.1944C14.3397 15.3913 13.9853 15.6211 13.6953 15.9165C13.0508 16.5729 12.6319 17.4918 12.5997 18.4436C12.5674 18.8703 12.6641 19.297 12.6963 19.7236C12.7286 20.1831 12.6641 20.6426 12.5352 21.1021C11.9874 22.94 10.1184 24.1216 8.28167 23.7934C6.50937 23.498 4.73706 24.4826 4.09258 26.2221C3.48033 27.7975 3.99591 29.6354 5.34931 30.6857C6.67049 31.7031 8.50724 31.7359 9.86064 30.7513C10.6018 30.1934 11.1496 29.4057 11.3429 28.4867C11.4396 28.06 11.4718 27.5677 11.4074 27.1411C11.3429 26.7144 11.3107 26.2877 11.3429 25.8611C11.5363 23.9247 13.1797 22.4477 15.0809 22.4477C15.4998 22.4477 15.9187 22.5462 16.3376 22.579C16.7888 22.579 17.2399 22.5134 17.6588 22.3493C18.4966 22.0539 19.2378 21.4303 19.6889 20.6426C20.5267 19.1985 20.3011 17.2949 19.1733 16.0477C18.0133 14.8006 16.1765 14.4395 14.6942 15.1944Z" fill="#BDC4D1"/>
<g filter="url(#filter0_d_267_403)">
<path d="M26.8068 20.5086H31.7748C33.5028 20.5086 34.9908 20.8686 36.2628 21.5646C37.5348 22.2606 38.5188 23.2446 39.1908 24.4926C39.8628 25.7646 40.2228 27.2286 40.2228 28.9086C40.2228 30.5886 39.8628 32.0526 39.1908 33.3246C38.5188 34.5966 37.5348 35.5806 36.2628 36.2766C34.9908 36.9726 33.5028 37.3086 31.7748 37.3086H26.8068V20.5086ZM31.7748 35.3886C33.7668 35.3886 35.3268 34.8126 36.4308 33.6366C37.5348 32.4846 38.0868 30.9006 38.0868 28.9086C38.0868 26.9166 37.5348 25.3326 36.4308 24.1806C35.3268 23.0286 33.7908 22.4286 31.7748 22.4286H28.8948V35.3886H31.7748ZM42.6215 27.9006C43.1015 26.9646 43.7975 26.2446 44.6855 25.7166C45.5495 25.1886 46.5575 24.9246 47.7095 24.9246C48.8135 24.9246 49.8215 25.1646 50.6855 25.6206C51.5495 26.1006 52.2215 26.7726 52.7255 27.6366C53.2055 28.5246 53.4695 29.5566 53.5175 30.7326C53.5175 30.9246 53.4935 31.1886 53.4695 31.5726H43.9655V31.7406C43.9895 32.9406 44.3495 33.9006 45.0695 34.6206C45.7655 35.3406 46.6775 35.7006 47.8295 35.7006C48.6935 35.7006 49.4375 35.4846 50.0615 35.0526C50.6855 34.6206 51.0935 33.9966 51.3095 33.2046H53.3015C53.0615 34.4526 52.4615 35.4846 51.5015 36.2766C50.5415 37.0686 49.3655 37.4526 47.9735 37.4526C46.7495 37.4526 45.6935 37.2126 44.7815 36.6846C43.8695 36.1566 43.1495 35.4366 42.6455 34.4766C42.1415 33.5166 41.9015 32.4366 41.9015 31.1886C41.9015 29.9406 42.1415 28.8606 42.6215 27.9006ZM51.4775 29.9406C51.3815 28.9086 50.9735 28.0926 50.3015 27.5166C49.6295 26.9406 48.7655 26.6526 47.7335 26.6526C46.7975 26.6526 45.9815 26.9646 45.2855 27.5646C44.5655 28.1886 44.1815 28.9806 44.0855 29.9406H51.4775ZM53.8304 25.0686H55.9424L59.6384 35.0766L63.3104 25.0686H65.3744L60.7904 37.3086H58.4144L53.8304 25.0686ZM81.2675 33.3006C80.5955 34.5966 79.6355 35.6286 78.4355 36.3486C77.2115 37.0926 75.8195 37.4526 74.2835 37.4526C72.7235 37.4526 71.3315 37.0926 70.1315 36.3486C68.9075 35.6286 67.9475 34.5966 67.2755 33.3006C66.6035 32.0046 66.2675 30.5406 66.2675 28.9086C66.2675 27.2766 66.6035 25.8126 67.2755 24.5166C67.9475 23.2206 68.9075 22.2126 70.1315 21.4686C71.3315 20.7486 72.7235 20.3646 74.2835 20.3646C75.8195 20.3646 77.2115 20.7486 78.4355 21.4686C79.6355 22.2126 80.5955 23.2206 81.2675 24.5166C81.9395 25.8126 82.2995 27.2766 82.2995 28.9086C82.2995 30.5406 81.9395 32.0046 81.2675 33.3006ZM69.1475 32.3406C69.6275 33.3486 70.3235 34.1166 71.2115 34.6926C72.0995 35.2686 73.1315 35.5326 74.2835 35.5326C75.4355 35.5326 76.4435 35.2686 77.3315 34.6926C78.2195 34.1166 78.9155 33.3486 79.4195 32.3406C79.8995 31.3326 80.1635 30.2046 80.1635 28.9086C80.1635 27.6366 79.8995 26.5086 79.4195 25.5006C78.9155 24.4926 78.2195 23.7246 77.3315 23.1486C76.4435 22.5726 75.4355 22.2846 74.2835 22.2846C73.1315 22.2846 72.0995 22.5726 71.2115 23.1486C70.3235 23.7246 69.6275 24.4926 69.1475 25.5006C68.6435 26.5086 68.4035 27.6366 68.4035 28.9086C68.4035 30.2046 68.6435 31.3326 69.1475 32.3406ZM93.6024 25.6686C94.4904 26.1726 95.1864 26.8926 95.6904 27.8286C96.1944 28.7886 96.4584 29.8926 96.4584 31.1886C96.4584 32.4366 96.1944 33.5166 95.6904 34.4526C95.1864 35.4126 94.4904 36.1326 93.6024 36.6606C92.6904 37.1886 91.6824 37.4526 90.5784 37.4526C89.5704 37.4526 88.7304 37.2846 88.0344 36.9246C87.3144 36.5646 86.7624 36.0606 86.3784 35.4366V42.1086H84.4104V25.0686H86.1144L86.3784 27.0366C87.3864 25.6446 88.8024 24.9246 90.5784 24.9246C91.7064 24.9246 92.7144 25.1886 93.6024 25.6686ZM93.3144 34.4526C94.0584 33.6126 94.4424 32.5326 94.4424 31.1886C94.4424 29.8686 94.0584 28.7886 93.3144 27.9486C92.5704 27.1086 91.5864 26.6766 90.3864 26.6766C89.5944 26.6766 88.8984 26.8686 88.2744 27.2526C87.6504 27.6366 87.1944 28.1646 86.8584 28.8366C86.5224 29.5086 86.3544 30.2766 86.3544 31.1406C86.3544 32.0286 86.5224 32.8206 86.8584 33.5166C87.1944 34.2126 87.6504 34.7406 88.2744 35.1246C88.8984 35.5086 89.5944 35.7006 90.3864 35.7006C91.5864 35.7006 92.5704 35.2926 93.3144 34.4526ZM99.1426 26.8686H96.9346V25.0686H99.1426V21.6366H101.111V25.0686H104.207V26.8686H101.111V34.0926C101.111 34.6206 101.207 34.9806 101.399 35.1966C101.591 35.4126 101.951 35.5086 102.455 35.5086H104.591V37.3086H102.335C101.183 37.3086 100.343 37.0686 99.8626 36.5406C99.3826 36.0366 99.1426 35.2206 99.1426 34.1166V26.8686ZM107.647 20.7006C107.887 20.9406 108.007 21.2526 108.007 21.6126C108.007 21.9966 107.887 22.2846 107.647 22.5246C107.407 22.7646 107.095 22.8846 106.735 22.8846C106.351 22.8846 106.063 22.7646 105.823 22.5246C105.583 22.2846 105.463 21.9966 105.463 21.6126C105.463 21.2526 105.583 20.9406 105.823 20.7006C106.063 20.4606 106.351 20.3406 106.735 20.3406C107.095 20.3406 107.407 20.4606 107.647 20.7006ZM105.751 25.0686H107.719V37.3086H105.751V25.0686ZM127.167 26.2206C128.031 27.0846 128.463 28.4286 128.463 30.2526V37.3086H126.495V30.3726C126.495 29.1966 126.231 28.2846 125.727 27.6606C125.223 27.0366 124.503 26.7246 123.591 26.7246C122.559 26.7246 121.743 27.0846 121.167 27.8046C120.591 28.5246 120.303 29.5086 120.303 30.7566V37.3086H118.335V30.3726C118.335 29.1966 118.071 28.2846 117.567 27.6606C117.039 27.0366 116.319 26.7246 115.383 26.7246C114.375 26.7246 113.583 27.1086 113.007 27.8766C112.431 28.6446 112.143 29.6286 112.143 30.8526V37.3086H110.175V25.0686H111.879L112.143 26.7486C113.007 25.5486 114.207 24.9246 115.719 24.9246C116.583 24.9246 117.375 25.1406 118.047 25.5246C118.719 25.9086 119.247 26.4846 119.583 27.2526C120.447 25.7166 121.863 24.9246 123.831 24.9246C125.199 24.9246 126.303 25.3566 127.167 26.2206ZM142.195 35.5086V37.3086H141.115C140.323 37.3086 139.771 37.1646 139.435 36.8286C139.099 36.5166 138.907 36.0366 138.907 35.4126C137.947 36.7806 136.579 37.4526 134.803 37.4526C133.435 37.4526 132.331 37.1406 131.515 36.4926C130.699 35.8686 130.291 34.9806 130.291 33.8766C130.291 32.6526 130.699 31.7166 131.539 31.0446C132.379 30.3966 133.603 30.0606 135.211 30.0606H138.811V29.2206C138.811 28.4286 138.523 27.8046 137.995 27.3486C137.467 26.9166 136.723 26.6766 135.763 26.6766C134.899 26.6766 134.203 26.8686 133.651 27.2526C133.099 27.6366 132.763 28.1166 132.643 28.7406H130.675C130.819 27.5406 131.347 26.6046 132.259 25.9326C133.171 25.2606 134.371 24.9246 135.859 24.9246C137.419 24.9246 138.619 25.3086 139.483 26.0766C140.347 26.8446 140.779 27.9246 140.779 29.3406V34.6206C140.779 35.2206 141.043 35.5086 141.595 35.5086H142.195ZM138.811 31.7166H135.019C133.195 31.7166 132.283 32.4126 132.283 33.7566C132.283 34.3806 132.523 34.8606 133.003 35.2206C133.483 35.6046 134.131 35.7726 134.947 35.7726C136.147 35.7726 137.083 35.4606 137.779 34.8366C138.451 34.2126 138.811 33.3726 138.811 32.3166V31.7166Z" fill="#BDC4D1"/>
</g>
<defs>
<filter id="filter0_d_267_403" x="6.80664" y="0.339844" width="155.389" height="61.7695" filterUnits="userSpaceOnUse" color-interpolation-filters="sRGB">
<feFlood flood-opacity="0" result="BackgroundImageFix"/>
<feColorMatrix in="SourceAlpha" type="matrix" values="0 0 0 0 0 0 0 0 0 0 0 0 0 0 0 0 0 0 127 0" result="hardAlpha"/>
<feOffset/>
<feGaussianBlur stdDeviation="10"/>
<feComposite in2="hardAlpha" operator="out"/>
<feColorMatrix type="matrix" values="0 0 0 0 1 0 0 0 0 1 0 0 0 0 1 0 0 0 0.2 0"/>
<feBlend mode="normal" in2="BackgroundImageFix" result="effect1_dropShadow_267_403"/>
<feBlend mode="normal" in="SourceGraphic" in2="effect1_dropShadow_267_403" result="shape"/>
</filter>
</defs>
</svg>
