<svg width="160" height="160" viewBox="0 0 160 160" fill="none" xmlns="http://www.w3.org/2000/svg">
<g filter="url(#filter0_f_267_435)">
<circle cx="80" cy="80" r="20" fill="#0054FF"/>
</g>
<g filter="url(#filter1_d_267_435)">
<rect x="48" y="48.002" width="64" height="64" rx="16" fill="#7495D9" fill-opacity="0.08" shape-rendering="crispEdges"/>
<rect x="48.5" y="48.502" width="63" height="63" rx="15.5" stroke="url(#paint0_linear_267_435)" stroke-opacity="0.3" shape-rendering="crispEdges"/>
</g>
<mask id="mask0_267_435" style="mask-type:alpha" maskUnits="userSpaceOnUse" x="62" y="62" width="36" height="36">
<path fill-rule="evenodd" clip-rule="evenodd" d="M80 98C89.9411 98 98 89.9411 98 80C98 79.9499 97.9998 79.8999 97.9994 79.85C97.9336 86.2703 92.7086 91.4547 86.2727 91.4547C79.7959 91.4547 74.5455 86.2042 74.5455 79.7274C74.5455 73.2506 79.7959 68.0001 86.2727 68.0001C92.3663 68.0001 97.3743 72.6476 97.9457 78.5913C97.2271 69.3086 89.4671 62 80 62C70.0589 62 62 70.0589 62 80C62 89.9411 70.0589 98 80 98Z" fill="#D9D9D9"/>
</mask>
<g mask="url(#mask0_267_435)">
<path fill-rule="evenodd" clip-rule="evenodd" d="M42.9092 87.3626L85.1819 45.0898L85.9533 45.8612L43.6806 88.134L42.9092 87.3626ZM44.4518 88.9056L86.7245 46.6329L87.4959 47.4043L45.2232 89.677L44.4518 88.9056ZM88.2674 48.175L45.9947 90.4478L46.766 91.2191L89.0388 48.9464L88.2674 48.175ZM47.5374 91.991L89.8102 49.7182L90.5816 50.4896L48.3088 92.7624L47.5374 91.991ZM92.8956 52.8039L50.6229 95.0766L51.3943 95.848L93.667 53.5753L92.8956 52.8039ZM53.7085 98.1616L95.9812 55.8889L96.7526 56.6603L54.4799 98.933L53.7085 98.1616ZM99.0668 58.975L56.7941 101.248L57.5654 102.019L99.8382 59.7464L99.0668 58.975ZM59.8796 104.333L102.152 62.0606L102.924 62.832L60.651 105.105L59.8796 104.333ZM105.238 65.1457L62.9651 107.418L63.7365 108.19L106.009 65.9171L105.238 65.1457ZM66.0508 110.504L108.324 68.2315L109.095 69.0028L66.8222 111.276L66.0508 110.504ZM111.409 71.3174L69.1363 113.59L69.9076 114.361L112.18 72.0887L111.409 71.3174ZM72.2218 116.675L114.495 74.4026L115.266 75.174L72.9932 117.447L72.2218 116.675ZM91.3529 51.2609L49.0802 93.5336L49.8516 94.305L92.1243 52.0323L91.3529 51.2609ZM52.1656 96.6195L94.4384 54.3467L95.2098 55.1181L52.937 97.3909L52.1656 96.6195ZM97.5241 57.4321L55.2513 99.7048L56.0227 100.476L98.2955 58.2034L97.5241 57.4321ZM58.3368 102.79L100.609 60.5177L101.381 61.2891L59.1082 103.562L58.3368 102.79ZM103.695 63.6028L61.4224 105.875L62.1938 106.647L104.467 64.3741L103.695 63.6028ZM64.5079 108.962L106.781 66.6888L107.552 67.4602L65.2793 109.733L64.5079 108.962ZM109.866 69.7745L67.5935 112.047L68.3649 112.819L110.638 70.5459L109.866 69.7745ZM70.679 115.132L112.952 72.8596L113.723 73.631L71.4504 115.904L70.679 115.132ZM116.037 75.9453L73.7647 118.218L74.5361 118.989L116.809 76.7167L116.037 75.9453Z" fill="url(#paint1_linear_267_435)"/>
</g>
<g opacity="0.6">
<mask id="mask1_267_435" style="mask-type:alpha" maskUnits="userSpaceOnUse" x="62" y="62" width="36" height="36">
<path fill-rule="evenodd" clip-rule="evenodd" d="M80 98C89.9411 98 98 89.9411 98 80C98 70.0589 89.9411 62 80 62C70.5323 62 62.7719 69.3095 62.0542 78.5931C62.6247 72.6485 67.6332 68.0001 73.7273 68.0001C80.2041 68.0001 85.4546 73.2506 85.4546 79.7274C85.4546 86.2042 80.2041 91.4547 73.7273 91.4547C67.2908 91.4547 62.0654 86.2694 62.0006 79.8482C62.0002 79.8988 62 79.9494 62 80C62 89.9411 70.0589 98 80 98Z" fill="#D9D9D9"/>
</mask>
<g mask="url(#mask1_267_435)">
<path fill-rule="evenodd" clip-rule="evenodd" d="M43.0664 87.3626L85.3391 45.0898L86.1105 45.8612L43.8378 88.134L43.0664 87.3626ZM44.609 88.9056L86.8817 46.6329L87.6531 47.4043L45.3804 89.677L44.609 88.9056ZM88.4246 48.175L46.1519 90.4478L46.9233 91.2191L89.196 48.9464L88.4246 48.175ZM47.6947 91.991L89.9674 49.7182L90.7388 50.4896L48.4661 92.7624L47.6947 91.991ZM93.0528 52.8039L50.7801 95.0766L51.5515 95.848L93.8242 53.5753L93.0528 52.8039ZM53.8657 98.1616L96.1385 55.8889L96.9099 56.6603L54.6371 98.933L53.8657 98.1616ZM99.224 58.975L56.9513 101.248L57.7227 102.019L99.9954 59.7464L99.224 58.975ZM60.0369 104.333L102.31 62.0606L103.081 62.832L60.8083 105.105L60.0369 104.333ZM105.395 65.1457L63.1223 107.418L63.8937 108.19L106.166 65.9171L105.395 65.1457ZM66.208 110.504L108.481 68.2315L109.252 69.0028L66.9794 111.276L66.208 110.504ZM111.566 71.3174L69.2935 113.59L70.0649 114.361L112.338 72.0887L111.566 71.3174ZM72.3791 116.675L114.652 74.4026L115.423 75.174L73.1504 117.447L72.3791 116.675ZM91.5101 51.2609L49.2374 93.5336L50.0088 94.305L92.2815 52.0323L91.5101 51.2609ZM52.3229 96.6195L94.5956 54.3467L95.367 55.1181L53.0943 97.3909L52.3229 96.6195ZM97.6813 57.4321L55.4086 99.7048L56.1799 100.476L98.4527 58.2034L97.6813 57.4321ZM58.494 102.79L100.767 60.5177L101.538 61.2891L59.2654 103.562L58.494 102.79ZM103.852 63.6028L61.5796 105.875L62.351 106.647L104.624 64.3741L103.852 63.6028ZM64.6652 108.962L106.938 66.6888L107.709 67.4602L65.4366 109.733L64.6652 108.962ZM110.023 69.7745L67.7507 112.047L68.5221 112.819L110.795 70.5459L110.023 69.7745ZM70.8362 115.132L113.109 72.8596L113.88 73.631L71.6076 115.904L70.8362 115.132ZM116.195 75.9453L73.9219 118.218L74.6933 118.989L116.966 76.7167L116.195 75.9453Z" fill="url(#paint2_linear_267_435)"/>
</g>
</g>
<defs>
<filter id="filter0_f_267_435" x="0" y="0" width="160" height="160" filterUnits="userSpaceOnUse" color-interpolation-filters="sRGB">
<feFlood flood-opacity="0" result="BackgroundImageFix"/>
<feBlend mode="normal" in="SourceGraphic" in2="BackgroundImageFix" result="shape"/>
<feGaussianBlur stdDeviation="30" result="effect1_foregroundBlur_267_435"/>
</filter>
<filter id="filter1_d_267_435" x="33" y="33.002" width="94" height="94" filterUnits="userSpaceOnUse" color-interpolation-filters="sRGB">
<feFlood flood-opacity="0" result="BackgroundImageFix"/>
<feColorMatrix in="SourceAlpha" type="matrix" values="0 0 0 0 0 0 0 0 0 0 0 0 0 0 0 0 0 0 127 0" result="hardAlpha"/>
<feOffset/>
<feGaussianBlur stdDeviation="7.5"/>
<feComposite in2="hardAlpha" operator="out"/>
<feColorMatrix type="matrix" values="0 0 0 0 0 0 0 0 0 0 0 0 0 0 0 0 0 0 0.4 0"/>
<feBlend mode="normal" in2="BackgroundImageFix" result="effect1_dropShadow_267_435"/>
<feBlend mode="normal" in="SourceGraphic" in2="effect1_dropShadow_267_435" result="shape"/>
</filter>
<linearGradient id="paint0_linear_267_435" x1="80" y1="48.002" x2="80" y2="112.002" gradientUnits="userSpaceOnUse">
<stop stop-color="#749FF6"/>
<stop offset="0.430493" stop-color="#153984"/>
</linearGradient>
<linearGradient id="paint1_linear_267_435" x1="79.8591" y1="45.0898" x2="79.8591" y2="118.989" gradientUnits="userSpaceOnUse">
<stop stop-color="#84ACFF"/>
<stop offset="1" stop-color="#3D79F5" stop-opacity="0.12"/>
</linearGradient>
<linearGradient id="paint2_linear_267_435" x1="80.0163" y1="45.0898" x2="80.0163" y2="118.989" gradientUnits="userSpaceOnUse">
<stop stop-color="#84ACFF"/>
<stop offset="1" stop-color="#3D79F5" stop-opacity="0.12"/>
</linearGradient>
</defs>
</svg>
