<svg width="160" height="160" viewBox="0 0 160 160" fill="none" xmlns="http://www.w3.org/2000/svg">
<g filter="url(#filter0_f_267_501)">
<circle cx="80" cy="80" r="20" fill="#0054FF"/>
</g>
<g filter="url(#filter1_d_267_501)">
<rect x="47.9277" y="48.0703" width="64" height="64" rx="16" transform="rotate(-0.129846 47.9277 48.0703)" fill="#7495D9" fill-opacity="0.08" shape-rendering="crispEdges"/>
<rect x="48.4289" y="48.5692" width="63" height="63" rx="15.5" transform="rotate(-0.129846 48.4289 48.5692)" stroke="url(#paint0_linear_267_501)" stroke-opacity="0.3" shape-rendering="crispEdges"/>
</g>
<mask id="mask0_267_501" style="mask-type:alpha" maskUnits="userSpaceOnUse" x="57" y="65" width="46" height="30">
<path fill-rule="evenodd" clip-rule="evenodd" d="M76.2426 67.2691C73.8994 64.9259 70.1004 64.9259 67.7573 67.2691L59.272 75.7544C56.9289 78.0975 56.9289 81.8965 59.272 84.2396L67.7573 92.7249C70.1004 95.0681 73.8994 95.0681 76.2426 92.7249L79.9999 88.9676L83.7573 92.7249C86.1004 95.0681 89.8994 95.0681 92.2426 92.7249L100.728 84.2396C103.071 81.8965 103.071 78.0975 100.728 75.7544L92.2426 67.2691C89.8994 64.9259 86.1004 64.9259 83.7573 67.2691L79.9999 71.0264L76.2426 67.2691ZM79.9999 71.0264L75.272 75.7544C72.9289 78.0975 72.9289 81.8965 75.272 84.2396L79.9999 88.9676L84.7279 84.2396C87.071 81.8965 87.071 78.0975 84.7278 75.7544L79.9999 71.0264Z" fill="#D9D9D9"/>
</mask>
<g mask="url(#mask0_267_501)">
<path fill-rule="evenodd" clip-rule="evenodd" d="M42.9385 85.3899L85.2112 43.1172L85.9826 43.8886L43.7099 86.1613L42.9385 85.3899ZM44.4811 86.9329L86.7538 44.6602L87.5252 45.4316L45.2525 87.7043L44.4811 86.9329ZM88.2967 46.2024L46.0239 88.4751L46.7953 89.2465L89.0681 46.9738L88.2967 46.2024ZM47.5667 90.0183L89.8395 47.7456L90.6109 48.517L48.3381 90.7897L47.5667 90.0183ZM92.9249 50.8312L50.6522 93.1039L51.4236 93.8753L93.6963 51.6026L92.9249 50.8312ZM53.7378 96.189L96.0105 53.9162L96.7819 54.6876L54.5092 96.9604L53.7378 96.189ZM99.0961 57.0023L56.8233 99.2751L57.5947 100.046L99.8675 57.7737L99.0961 57.0023ZM59.9089 102.361L102.182 60.088L102.953 60.8593L60.6803 103.132L59.9089 102.361ZM105.267 63.1731L62.9944 105.446L63.7658 106.217L106.039 63.9445L105.267 63.1731ZM66.0801 108.532L108.353 66.2588L109.124 67.0302L66.8515 109.303L66.0801 108.532ZM111.438 69.3447L69.1656 111.617L69.9369 112.389L112.21 70.1161L111.438 69.3447ZM72.2512 114.703L114.524 72.4299L115.295 73.2013L73.0226 115.474L72.2512 114.703ZM91.3822 49.2882L49.1095 91.561L49.8808 92.3323L92.1536 50.0596L91.3822 49.2882ZM52.1949 94.6468L94.4677 52.3741L95.2391 53.1455L52.9663 95.4182L52.1949 94.6468ZM97.5534 55.4594L55.2806 97.7321L56.052 98.5035L98.3247 56.2308L97.5534 55.4594ZM58.3661 100.818L100.639 58.5451L101.41 59.3165L59.1374 101.589L58.3661 100.818ZM103.724 61.6301L61.4517 103.903L62.2231 104.674L104.496 62.4015L103.724 61.6301ZM64.5372 106.989L106.81 64.7162L107.581 65.4875L65.3086 107.76L64.5372 106.989ZM109.896 67.8018L67.6228 110.075L68.3942 110.846L110.667 68.5732L109.896 67.8018ZM70.7083 113.16L112.981 70.8869L113.752 71.6583L71.4797 113.931L70.7083 113.16ZM116.067 73.9726L73.794 116.245L74.5654 117.017L116.838 74.744L116.067 73.9726Z" fill="url(#paint1_linear_267_501)"/>
</g>
<defs>
<filter id="filter0_f_267_501" x="0" y="0" width="160" height="160" filterUnits="userSpaceOnUse" color-interpolation-filters="sRGB">
<feFlood flood-opacity="0" result="BackgroundImageFix"/>
<feBlend mode="normal" in="SourceGraphic" in2="BackgroundImageFix" result="shape"/>
<feGaussianBlur stdDeviation="30" result="effect1_foregroundBlur_267_501"/>
</filter>
<filter id="filter1_d_267_501" x="32.9639" y="32.9609" width="94.0728" height="94.0723" filterUnits="userSpaceOnUse" color-interpolation-filters="sRGB">
<feFlood flood-opacity="0" result="BackgroundImageFix"/>
<feColorMatrix in="SourceAlpha" type="matrix" values="0 0 0 0 0 0 0 0 0 0 0 0 0 0 0 0 0 0 127 0" result="hardAlpha"/>
<feOffset/>
<feGaussianBlur stdDeviation="7.5"/>
<feComposite in2="hardAlpha" operator="out"/>
<feColorMatrix type="matrix" values="0 0 0 0 0 0 0 0 0 0 0 0 0 0 0 0 0 0 0.4 0"/>
<feBlend mode="normal" in2="BackgroundImageFix" result="effect1_dropShadow_267_501"/>
<feBlend mode="normal" in="SourceGraphic" in2="effect1_dropShadow_267_501" result="shape"/>
</filter>
<linearGradient id="paint0_linear_267_501" x1="79.9277" y1="48.0703" x2="79.9277" y2="112.07" gradientUnits="userSpaceOnUse">
<stop stop-color="#749FF6"/>
<stop offset="0.430493" stop-color="#153984"/>
</linearGradient>
<linearGradient id="paint1_linear_267_501" x1="79.8884" y1="43.1172" x2="79.8884" y2="117.017" gradientUnits="userSpaceOnUse">
<stop stop-color="#84ACFF"/>
<stop offset="1" stop-color="#3D79F5" stop-opacity="0.12"/>
</linearGradient>
</defs>
</svg>
